<mxfile host="app.diagrams.net" modified="2024-02-28T09:36:19.558Z" agent="Mozilla/5.0 (Windows NT 10.0; Win64; x64; rv:123.0) Gecko/20100101 Firefox/123.0" etag="Nne85EiqXvCFUFHjhbcz" version="23.1.6" type="device">
  <diagram id="R2lEEEUBdFMjLlhIrx00" name="Page-1">
    <mxGraphModel dx="2349" dy="818" grid="1" gridSize="10" guides="1" tooltips="1" connect="1" arrows="1" fold="1" page="1" pageScale="1" pageWidth="850" pageHeight="1100" math="0" shadow="0" extFonts="Permanent Marker^https://fonts.googleapis.com/css?family=Permanent+Marker">
      <root>
        <mxCell id="0" />
        <mxCell id="1" parent="0" />
        <mxCell id="WHg0GT0LCj10jCLnW-7c-107" value="" style="rounded=0;orthogonalLoop=1;jettySize=auto;html=1;endArrow=none;endFill=0;entryX=0.5;entryY=0;entryDx=0;entryDy=0;exitX=0.5;exitY=1;exitDx=0;exitDy=0;strokeColor=default;" edge="1" parent="1" source="WHg0GT0LCj10jCLnW-7c-106" target="WHg0GT0LCj10jCLnW-7c-87">
          <mxGeometry relative="1" as="geometry">
            <mxPoint x="1100" y="160" as="sourcePoint" />
            <mxPoint x="1085" y="180" as="targetPoint" />
            <Array as="points" />
          </mxGeometry>
        </mxCell>
        <mxCell id="WHg0GT0LCj10jCLnW-7c-4" value="" style="endArrow=none;html=1;rounded=0;entryX=0.5;entryY=0;entryDx=0;entryDy=0;exitX=0.5;exitY=1;exitDx=0;exitDy=0;" edge="1" parent="1" source="GtdhLlFjY-CjgjCnvUHd-13" target="GtdhLlFjY-CjgjCnvUHd-2">
          <mxGeometry width="50" height="50" relative="1" as="geometry">
            <mxPoint x="190" y="100" as="sourcePoint" />
            <mxPoint x="255" y="160" as="targetPoint" />
            <Array as="points" />
          </mxGeometry>
        </mxCell>
        <mxCell id="WHg0GT0LCj10jCLnW-7c-40" value="" style="rounded=0;orthogonalLoop=1;jettySize=auto;html=1;endArrow=none;endFill=0;entryX=0.75;entryY=1;entryDx=0;entryDy=0;exitX=0.5;exitY=0;exitDx=0;exitDy=0;strokeColor=default;" edge="1" parent="1" source="WHg0GT0LCj10jCLnW-7c-36" target="WHg0GT0LCj10jCLnW-7c-29">
          <mxGeometry relative="1" as="geometry">
            <mxPoint x="875" y="640" as="sourcePoint" />
            <mxPoint x="780" y="620" as="targetPoint" />
            <Array as="points" />
          </mxGeometry>
        </mxCell>
        <mxCell id="WHg0GT0LCj10jCLnW-7c-41" value="" style="rounded=0;orthogonalLoop=1;jettySize=auto;html=1;endArrow=none;endFill=0;exitX=0.5;exitY=0;exitDx=0;exitDy=0;strokeColor=default;" edge="1" parent="1" source="WHg0GT0LCj10jCLnW-7c-35">
          <mxGeometry relative="1" as="geometry">
            <mxPoint x="745" y="630" as="sourcePoint" />
            <mxPoint x="720" y="540" as="targetPoint" />
            <Array as="points" />
          </mxGeometry>
        </mxCell>
        <mxCell id="GtdhLlFjY-CjgjCnvUHd-2" value="Order" style="whiteSpace=wrap;html=1;align=center;" parent="1" vertex="1">
          <mxGeometry x="310" y="110" width="100" height="40" as="geometry" />
        </mxCell>
        <mxCell id="GtdhLlFjY-CjgjCnvUHd-6" value="Order Item" style="whiteSpace=wrap;html=1;align=center;" parent="1" vertex="1">
          <mxGeometry x="310" y="300" width="100" height="40" as="geometry" />
        </mxCell>
        <mxCell id="GtdhLlFjY-CjgjCnvUHd-13" value="Delivery date" style="ellipse;whiteSpace=wrap;html=1;align=center;" parent="1" vertex="1">
          <mxGeometry x="270" width="100" height="40" as="geometry" />
        </mxCell>
        <mxCell id="GtdhLlFjY-CjgjCnvUHd-14" value="Delivery place" style="ellipse;whiteSpace=wrap;html=1;align=center;" parent="1" vertex="1">
          <mxGeometry x="380" y="10" width="100" height="40" as="geometry" />
        </mxCell>
        <mxCell id="GtdhLlFjY-CjgjCnvUHd-15" value="&lt;u&gt;Order Id&lt;/u&gt;" style="ellipse;whiteSpace=wrap;html=1;align=center;" parent="1" vertex="1">
          <mxGeometry x="310" y="50" width="100" height="40" as="geometry" />
        </mxCell>
        <mxCell id="GtdhLlFjY-CjgjCnvUHd-29" value="Quantity" style="ellipse;whiteSpace=wrap;html=1;align=center;" parent="1" vertex="1">
          <mxGeometry x="310" y="360" width="100" height="40" as="geometry" />
        </mxCell>
        <mxCell id="GtdhLlFjY-CjgjCnvUHd-30" value="" style="endArrow=none;html=1;rounded=0;entryX=0.5;entryY=1;entryDx=0;entryDy=0;exitX=0.5;exitY=0;exitDx=0;exitDy=0;" parent="1" target="GtdhLlFjY-CjgjCnvUHd-2" edge="1">
          <mxGeometry width="50" height="50" relative="1" as="geometry">
            <mxPoint x="360" y="180" as="sourcePoint" />
            <mxPoint x="540" y="270" as="targetPoint" />
            <Array as="points" />
          </mxGeometry>
        </mxCell>
        <mxCell id="GtdhLlFjY-CjgjCnvUHd-33" value="1" style="edgeLabel;html=1;align=center;verticalAlign=middle;resizable=0;points=[];" parent="GtdhLlFjY-CjgjCnvUHd-30" connectable="0" vertex="1">
          <mxGeometry x="0.5324" y="3" relative="1" as="geometry">
            <mxPoint x="-7" y="-1" as="offset" />
          </mxGeometry>
        </mxCell>
        <mxCell id="GtdhLlFjY-CjgjCnvUHd-31" value="" style="endArrow=none;html=1;rounded=0;exitX=0.5;exitY=0;exitDx=0;exitDy=0;entryX=0.5;entryY=1;entryDx=0;entryDy=0;" parent="1" edge="1" source="GtdhLlFjY-CjgjCnvUHd-6">
          <mxGeometry width="50" height="50" relative="1" as="geometry">
            <mxPoint x="360" y="380" as="sourcePoint" />
            <mxPoint x="360" y="240" as="targetPoint" />
            <Array as="points" />
          </mxGeometry>
        </mxCell>
        <mxCell id="WHg0GT0LCj10jCLnW-7c-7" value="N" style="edgeLabel;html=1;align=center;verticalAlign=middle;resizable=0;points=[];" vertex="1" connectable="0" parent="GtdhLlFjY-CjgjCnvUHd-31">
          <mxGeometry x="-0.3944" y="-2" relative="1" as="geometry">
            <mxPoint x="-12" as="offset" />
          </mxGeometry>
        </mxCell>
        <mxCell id="GtdhLlFjY-CjgjCnvUHd-34" value="" style="endArrow=none;html=1;rounded=0;entryX=0.5;entryY=1;entryDx=0;entryDy=0;" parent="1" target="GtdhLlFjY-CjgjCnvUHd-15" edge="1">
          <mxGeometry width="50" height="50" relative="1" as="geometry">
            <mxPoint x="360" y="110" as="sourcePoint" />
            <mxPoint x="410" y="60" as="targetPoint" />
            <Array as="points" />
          </mxGeometry>
        </mxCell>
        <mxCell id="GtdhLlFjY-CjgjCnvUHd-35" value="" style="endArrow=none;html=1;rounded=0;entryX=0.5;entryY=1;entryDx=0;entryDy=0;exitX=0.75;exitY=0;exitDx=0;exitDy=0;" parent="1" source="GtdhLlFjY-CjgjCnvUHd-2" target="GtdhLlFjY-CjgjCnvUHd-14" edge="1">
          <mxGeometry width="50" height="50" relative="1" as="geometry">
            <mxPoint x="370" y="120" as="sourcePoint" />
            <mxPoint x="370" y="90" as="targetPoint" />
            <Array as="points" />
          </mxGeometry>
        </mxCell>
        <mxCell id="GtdhLlFjY-CjgjCnvUHd-36" value="" style="endArrow=none;html=1;rounded=0;entryX=0.25;entryY=0;entryDx=0;entryDy=0;exitX=0.5;exitY=1;exitDx=0;exitDy=0;" parent="1" source="WHg0GT0LCj10jCLnW-7c-2" target="GtdhLlFjY-CjgjCnvUHd-2" edge="1">
          <mxGeometry width="50" height="50" relative="1" as="geometry">
            <mxPoint x="270" y="50" as="sourcePoint" />
            <mxPoint x="450" y="140" as="targetPoint" />
            <Array as="points" />
          </mxGeometry>
        </mxCell>
        <mxCell id="WHg0GT0LCj10jCLnW-7c-14" value="" style="rounded=0;orthogonalLoop=1;jettySize=auto;html=1;endArrow=none;endFill=0;entryX=0.5;entryY=1;entryDx=0;entryDy=0;exitX=0.5;exitY=0;exitDx=0;exitDy=0;strokeColor=default;" edge="1" parent="1" source="GtdhLlFjY-CjgjCnvUHd-29" target="GtdhLlFjY-CjgjCnvUHd-6">
          <mxGeometry relative="1" as="geometry">
            <mxPoint x="480" y="340" as="sourcePoint" />
            <mxPoint x="430" y="340" as="targetPoint" />
          </mxGeometry>
        </mxCell>
        <mxCell id="WHg0GT0LCj10jCLnW-7c-15" value="Contains" style="shape=rhombus;perimeter=rhombusPerimeter;whiteSpace=wrap;html=1;align=center;" vertex="1" parent="1">
          <mxGeometry x="300" y="180" width="120" height="60" as="geometry" />
        </mxCell>
        <mxCell id="WHg0GT0LCj10jCLnW-7c-16" value="Has" style="shape=rhombus;perimeter=rhombusPerimeter;whiteSpace=wrap;html=1;align=center;" vertex="1" parent="1">
          <mxGeometry x="480" y="290" width="120" height="60" as="geometry" />
        </mxCell>
        <mxCell id="WHg0GT0LCj10jCLnW-7c-17" value="" style="endArrow=none;html=1;rounded=0;" edge="1" parent="1">
          <mxGeometry relative="1" as="geometry">
            <mxPoint x="410" y="319.58" as="sourcePoint" />
            <mxPoint x="480" y="320" as="targetPoint" />
          </mxGeometry>
        </mxCell>
        <mxCell id="WHg0GT0LCj10jCLnW-7c-20" value="1" style="edgeLabel;html=1;align=center;verticalAlign=middle;resizable=0;points=[];" vertex="1" connectable="0" parent="WHg0GT0LCj10jCLnW-7c-17">
          <mxGeometry x="-0.6527" y="2" relative="1" as="geometry">
            <mxPoint as="offset" />
          </mxGeometry>
        </mxCell>
        <mxCell id="WHg0GT0LCj10jCLnW-7c-18" value="" style="endArrow=none;html=1;rounded=0;" edge="1" parent="1">
          <mxGeometry relative="1" as="geometry">
            <mxPoint x="600" y="319.58" as="sourcePoint" />
            <mxPoint x="670" y="320" as="targetPoint" />
          </mxGeometry>
        </mxCell>
        <mxCell id="WHg0GT0LCj10jCLnW-7c-21" value="1" style="edgeLabel;html=1;align=center;verticalAlign=middle;resizable=0;points=[];" vertex="1" connectable="0" parent="WHg0GT0LCj10jCLnW-7c-18">
          <mxGeometry x="0.7282" y="2" relative="1" as="geometry">
            <mxPoint as="offset" />
          </mxGeometry>
        </mxCell>
        <mxCell id="WHg0GT0LCj10jCLnW-7c-19" value="Baked good" style="whiteSpace=wrap;html=1;align=center;" vertex="1" parent="1">
          <mxGeometry x="670" y="300" width="100" height="40" as="geometry" />
        </mxCell>
        <mxCell id="WHg0GT0LCj10jCLnW-7c-22" value="Baked Good Name" style="ellipse;whiteSpace=wrap;html=1;align=center;fontStyle=4;" vertex="1" parent="1">
          <mxGeometry x="830" y="300" width="130" height="40" as="geometry" />
        </mxCell>
        <mxCell id="WHg0GT0LCj10jCLnW-7c-23" value="" style="rounded=0;orthogonalLoop=1;jettySize=auto;html=1;endArrow=none;endFill=0;entryX=0;entryY=0.5;entryDx=0;entryDy=0;exitX=1;exitY=0.5;exitDx=0;exitDy=0;strokeColor=default;" edge="1" parent="1" source="WHg0GT0LCj10jCLnW-7c-19" target="WHg0GT0LCj10jCLnW-7c-22">
          <mxGeometry relative="1" as="geometry">
            <mxPoint x="390" y="380" as="sourcePoint" />
            <mxPoint x="395" y="350" as="targetPoint" />
            <Array as="points" />
          </mxGeometry>
        </mxCell>
        <mxCell id="WHg0GT0LCj10jCLnW-7c-24" value="Consists of" style="shape=rhombus;perimeter=rhombusPerimeter;whiteSpace=wrap;html=1;align=center;" vertex="1" parent="1">
          <mxGeometry x="660" y="390" width="120" height="60" as="geometry" />
        </mxCell>
        <mxCell id="WHg0GT0LCj10jCLnW-7c-25" value="" style="endArrow=none;html=1;rounded=0;entryX=0.5;entryY=1;entryDx=0;entryDy=0;exitX=0.5;exitY=0;exitDx=0;exitDy=0;" edge="1" parent="1" source="WHg0GT0LCj10jCLnW-7c-24" target="WHg0GT0LCj10jCLnW-7c-19">
          <mxGeometry relative="1" as="geometry">
            <mxPoint x="600" y="380" as="sourcePoint" />
            <mxPoint x="670" y="380.42" as="targetPoint" />
          </mxGeometry>
        </mxCell>
        <mxCell id="WHg0GT0LCj10jCLnW-7c-26" value="1" style="edgeLabel;html=1;align=center;verticalAlign=middle;resizable=0;points=[];" vertex="1" connectable="0" parent="WHg0GT0LCj10jCLnW-7c-25">
          <mxGeometry x="0.7282" y="2" relative="1" as="geometry">
            <mxPoint as="offset" />
          </mxGeometry>
        </mxCell>
        <mxCell id="WHg0GT0LCj10jCLnW-7c-27" value="" style="endArrow=none;html=1;rounded=0;exitX=0.5;exitY=1;exitDx=0;exitDy=0;entryX=0.5;entryY=0;entryDx=0;entryDy=0;" edge="1" parent="1" source="WHg0GT0LCj10jCLnW-7c-24" target="WHg0GT0LCj10jCLnW-7c-29">
          <mxGeometry relative="1" as="geometry">
            <mxPoint x="690" y="510" as="sourcePoint" />
            <mxPoint x="720" y="510" as="targetPoint" />
          </mxGeometry>
        </mxCell>
        <mxCell id="WHg0GT0LCj10jCLnW-7c-28" value="1" style="edgeLabel;html=1;align=center;verticalAlign=middle;resizable=0;points=[];" vertex="1" connectable="0" parent="WHg0GT0LCj10jCLnW-7c-27">
          <mxGeometry x="0.7282" y="2" relative="1" as="geometry">
            <mxPoint as="offset" />
          </mxGeometry>
        </mxCell>
        <mxCell id="WHg0GT0LCj10jCLnW-7c-29" value="Recipe" style="whiteSpace=wrap;html=1;align=center;" vertex="1" parent="1">
          <mxGeometry x="670" y="500" width="100" height="40" as="geometry" />
        </mxCell>
        <mxCell id="WHg0GT0LCj10jCLnW-7c-30" value="Recipe Id" style="ellipse;whiteSpace=wrap;html=1;align=center;fontStyle=4;" vertex="1" parent="1">
          <mxGeometry x="820" y="500" width="100" height="40" as="geometry" />
        </mxCell>
        <mxCell id="WHg0GT0LCj10jCLnW-7c-31" value="Sugar quantity" style="ellipse;whiteSpace=wrap;html=1;align=center;" vertex="1" parent="1">
          <mxGeometry x="680" y="570" width="100" height="40" as="geometry" />
        </mxCell>
        <mxCell id="WHg0GT0LCj10jCLnW-7c-32" value="Flour quantity" style="ellipse;whiteSpace=wrap;html=1;align=center;" vertex="1" parent="1">
          <mxGeometry x="790" y="560" width="100" height="40" as="geometry" />
        </mxCell>
        <mxCell id="WHg0GT0LCj10jCLnW-7c-33" value="Eggs quantity" style="ellipse;whiteSpace=wrap;html=1;align=center;" vertex="1" parent="1">
          <mxGeometry x="570" y="570" width="100" height="40" as="geometry" />
        </mxCell>
        <mxCell id="WHg0GT0LCj10jCLnW-7c-34" value="Vanilla quantity" style="ellipse;whiteSpace=wrap;html=1;align=center;" vertex="1" parent="1">
          <mxGeometry x="570" y="630" width="100" height="40" as="geometry" />
        </mxCell>
        <mxCell id="WHg0GT0LCj10jCLnW-7c-35" value="Baking powder quantity" style="ellipse;whiteSpace=wrap;html=1;align=center;" vertex="1" parent="1">
          <mxGeometry x="680" y="630" width="100" height="40" as="geometry" />
        </mxCell>
        <mxCell id="WHg0GT0LCj10jCLnW-7c-36" value="Cocoa quantity" style="ellipse;whiteSpace=wrap;html=1;align=center;" vertex="1" parent="1">
          <mxGeometry x="790" y="630" width="100" height="40" as="geometry" />
        </mxCell>
        <mxCell id="WHg0GT0LCj10jCLnW-7c-37" value="" style="rounded=0;orthogonalLoop=1;jettySize=auto;html=1;endArrow=none;endFill=0;entryX=0.25;entryY=1;entryDx=0;entryDy=0;exitX=0.5;exitY=0;exitDx=0;exitDy=0;strokeColor=default;" edge="1" parent="1" source="WHg0GT0LCj10jCLnW-7c-33" target="WHg0GT0LCj10jCLnW-7c-29">
          <mxGeometry relative="1" as="geometry">
            <mxPoint x="585" y="560" as="sourcePoint" />
            <mxPoint x="560" y="520" as="targetPoint" />
            <Array as="points" />
          </mxGeometry>
        </mxCell>
        <mxCell id="WHg0GT0LCj10jCLnW-7c-38" value="" style="rounded=0;orthogonalLoop=1;jettySize=auto;html=1;endArrow=none;endFill=0;entryX=0.5;entryY=1;entryDx=0;entryDy=0;exitX=0.5;exitY=0;exitDx=0;exitDy=0;strokeColor=default;" edge="1" parent="1" source="WHg0GT0LCj10jCLnW-7c-31" target="WHg0GT0LCj10jCLnW-7c-29">
          <mxGeometry relative="1" as="geometry">
            <mxPoint x="630" y="580" as="sourcePoint" />
            <mxPoint x="705" y="550" as="targetPoint" />
            <Array as="points" />
          </mxGeometry>
        </mxCell>
        <mxCell id="WHg0GT0LCj10jCLnW-7c-39" value="" style="rounded=0;orthogonalLoop=1;jettySize=auto;html=1;endArrow=none;endFill=0;entryX=0.75;entryY=1;entryDx=0;entryDy=0;exitX=0.5;exitY=0;exitDx=0;exitDy=0;strokeColor=default;" edge="1" parent="1" source="WHg0GT0LCj10jCLnW-7c-32" target="WHg0GT0LCj10jCLnW-7c-29">
          <mxGeometry relative="1" as="geometry">
            <mxPoint x="740" y="580" as="sourcePoint" />
            <mxPoint x="730" y="550" as="targetPoint" />
            <Array as="points" />
          </mxGeometry>
        </mxCell>
        <mxCell id="WHg0GT0LCj10jCLnW-7c-42" value="" style="rounded=0;orthogonalLoop=1;jettySize=auto;html=1;endArrow=none;endFill=0;entryX=0.25;entryY=1;entryDx=0;entryDy=0;exitX=1;exitY=0;exitDx=0;exitDy=0;strokeColor=default;" edge="1" parent="1" source="WHg0GT0LCj10jCLnW-7c-34" target="WHg0GT0LCj10jCLnW-7c-29">
          <mxGeometry relative="1" as="geometry">
            <mxPoint x="870" y="590" as="sourcePoint" />
            <mxPoint x="775" y="570" as="targetPoint" />
            <Array as="points" />
          </mxGeometry>
        </mxCell>
        <mxCell id="WHg0GT0LCj10jCLnW-7c-43" value="" style="rounded=0;orthogonalLoop=1;jettySize=auto;html=1;endArrow=none;endFill=0;entryX=1;entryY=0.5;entryDx=0;entryDy=0;exitX=0;exitY=0.5;exitDx=0;exitDy=0;strokeColor=default;" edge="1" parent="1" source="WHg0GT0LCj10jCLnW-7c-30" target="WHg0GT0LCj10jCLnW-7c-29">
          <mxGeometry relative="1" as="geometry">
            <mxPoint x="880" y="600" as="sourcePoint" />
            <mxPoint x="785" y="580" as="targetPoint" />
            <Array as="points" />
          </mxGeometry>
        </mxCell>
        <mxCell id="WHg0GT0LCj10jCLnW-7c-44" value="Batch" style="whiteSpace=wrap;html=1;align=center;" vertex="1" parent="1">
          <mxGeometry x="670" y="110" width="100" height="40" as="geometry" />
        </mxCell>
        <mxCell id="WHg0GT0LCj10jCLnW-7c-48" value="Created from" style="shape=rhombus;perimeter=rhombusPerimeter;whiteSpace=wrap;html=1;align=center;" vertex="1" parent="1">
          <mxGeometry x="480" y="100" width="120" height="60" as="geometry" />
        </mxCell>
        <mxCell id="WHg0GT0LCj10jCLnW-7c-49" value="" style="endArrow=none;html=1;rounded=0;exitX=1;exitY=0.5;exitDx=0;exitDy=0;entryX=0.5;entryY=1;entryDx=0;entryDy=0;" edge="1" parent="1" source="GtdhLlFjY-CjgjCnvUHd-2">
          <mxGeometry width="50" height="50" relative="1" as="geometry">
            <mxPoint x="479" y="190" as="sourcePoint" />
            <mxPoint x="479" y="130" as="targetPoint" />
            <Array as="points" />
          </mxGeometry>
        </mxCell>
        <mxCell id="WHg0GT0LCj10jCLnW-7c-50" value="N" style="edgeLabel;html=1;align=center;verticalAlign=middle;resizable=0;points=[];" vertex="1" connectable="0" parent="WHg0GT0LCj10jCLnW-7c-49">
          <mxGeometry x="-0.3944" y="-2" relative="1" as="geometry">
            <mxPoint x="-11" y="8" as="offset" />
          </mxGeometry>
        </mxCell>
        <mxCell id="WHg0GT0LCj10jCLnW-7c-51" value="" style="endArrow=none;html=1;rounded=0;entryX=0;entryY=0.5;entryDx=0;entryDy=0;exitX=1;exitY=0.5;exitDx=0;exitDy=0;" edge="1" parent="1" source="WHg0GT0LCj10jCLnW-7c-48" target="WHg0GT0LCj10jCLnW-7c-44">
          <mxGeometry width="50" height="50" relative="1" as="geometry">
            <mxPoint x="370" y="190" as="sourcePoint" />
            <mxPoint x="370" y="160" as="targetPoint" />
            <Array as="points" />
          </mxGeometry>
        </mxCell>
        <mxCell id="WHg0GT0LCj10jCLnW-7c-52" value="1" style="edgeLabel;html=1;align=center;verticalAlign=middle;resizable=0;points=[];" connectable="0" vertex="1" parent="WHg0GT0LCj10jCLnW-7c-51">
          <mxGeometry x="0.5324" y="3" relative="1" as="geometry">
            <mxPoint x="6" y="-7" as="offset" />
          </mxGeometry>
        </mxCell>
        <mxCell id="WHg0GT0LCj10jCLnW-7c-54" value="" style="endArrow=none;html=1;rounded=0;entryX=0.5;entryY=1;entryDx=0;entryDy=0;" edge="1" parent="1" source="WHg0GT0LCj10jCLnW-7c-56" target="WHg0GT0LCj10jCLnW-7c-44">
          <mxGeometry width="50" height="50" relative="1" as="geometry">
            <mxPoint x="720" y="190" as="sourcePoint" />
            <mxPoint x="730" y="150" as="targetPoint" />
            <Array as="points" />
          </mxGeometry>
        </mxCell>
        <mxCell id="WHg0GT0LCj10jCLnW-7c-55" value="M" style="edgeLabel;html=1;align=center;verticalAlign=middle;resizable=0;points=[];" connectable="0" vertex="1" parent="WHg0GT0LCj10jCLnW-7c-54">
          <mxGeometry x="0.5324" y="3" relative="1" as="geometry">
            <mxPoint x="13" y="1" as="offset" />
          </mxGeometry>
        </mxCell>
        <mxCell id="WHg0GT0LCj10jCLnW-7c-56" value="Depends on" style="shape=rhombus;perimeter=rhombusPerimeter;whiteSpace=wrap;html=1;align=center;" vertex="1" parent="1">
          <mxGeometry x="660" y="190" width="120" height="60" as="geometry" />
        </mxCell>
        <mxCell id="WHg0GT0LCj10jCLnW-7c-58" value="" style="endArrow=none;html=1;rounded=0;entryX=0.5;entryY=1;entryDx=0;entryDy=0;exitX=0.5;exitY=0;exitDx=0;exitDy=0;" edge="1" parent="1" source="WHg0GT0LCj10jCLnW-7c-19" target="WHg0GT0LCj10jCLnW-7c-56">
          <mxGeometry width="50" height="50" relative="1" as="geometry">
            <mxPoint x="530" y="270" as="sourcePoint" />
            <mxPoint x="730" y="160" as="targetPoint" />
            <Array as="points">
              <mxPoint x="720" y="280" />
            </Array>
          </mxGeometry>
        </mxCell>
        <mxCell id="WHg0GT0LCj10jCLnW-7c-59" value="N" style="edgeLabel;html=1;align=center;verticalAlign=middle;resizable=0;points=[];" connectable="0" vertex="1" parent="WHg0GT0LCj10jCLnW-7c-58">
          <mxGeometry x="0.5324" y="3" relative="1" as="geometry">
            <mxPoint x="13" y="28" as="offset" />
          </mxGeometry>
        </mxCell>
        <mxCell id="WHg0GT0LCj10jCLnW-7c-62" value="Batch Number" style="ellipse;whiteSpace=wrap;html=1;align=center;fontStyle=4;" vertex="1" parent="1">
          <mxGeometry x="860" y="30" width="110" height="40" as="geometry" />
        </mxCell>
        <mxCell id="WHg0GT0LCj10jCLnW-7c-64" value="Start Time" style="ellipse;whiteSpace=wrap;html=1;align=center;" vertex="1" parent="1">
          <mxGeometry x="530" y="20" width="100" height="40" as="geometry" />
        </mxCell>
        <mxCell id="WHg0GT0LCj10jCLnW-7c-65" value="Finish Time" style="ellipse;whiteSpace=wrap;html=1;align=center;" vertex="1" parent="1">
          <mxGeometry x="640" y="10" width="100" height="40" as="geometry" />
        </mxCell>
        <mxCell id="WHg0GT0LCj10jCLnW-7c-66" value="Delay" style="ellipse;whiteSpace=wrap;html=1;align=center;" vertex="1" parent="1">
          <mxGeometry x="750" y="10" width="100" height="40" as="geometry" />
        </mxCell>
        <mxCell id="WHg0GT0LCj10jCLnW-7c-67" value="" style="endArrow=none;html=1;rounded=0;entryX=0.5;entryY=1;entryDx=0;entryDy=0;exitX=0.75;exitY=0;exitDx=0;exitDy=0;" edge="1" parent="1" target="WHg0GT0LCj10jCLnW-7c-64">
          <mxGeometry width="50" height="50" relative="1" as="geometry">
            <mxPoint x="685" y="110" as="sourcePoint" />
            <mxPoint x="790" y="60" as="targetPoint" />
            <Array as="points" />
          </mxGeometry>
        </mxCell>
        <mxCell id="WHg0GT0LCj10jCLnW-7c-68" value="" style="endArrow=none;html=1;rounded=0;entryX=0.5;entryY=1;entryDx=0;entryDy=0;exitX=0.5;exitY=0;exitDx=0;exitDy=0;" edge="1" parent="1" source="WHg0GT0LCj10jCLnW-7c-44" target="WHg0GT0LCj10jCLnW-7c-65">
          <mxGeometry width="50" height="50" relative="1" as="geometry">
            <mxPoint x="405" y="130" as="sourcePoint" />
            <mxPoint x="510" y="80" as="targetPoint" />
            <Array as="points" />
          </mxGeometry>
        </mxCell>
        <mxCell id="WHg0GT0LCj10jCLnW-7c-69" value="" style="endArrow=none;html=1;rounded=0;entryX=0.5;entryY=1;entryDx=0;entryDy=0;exitX=1;exitY=0;exitDx=0;exitDy=0;" edge="1" parent="1" source="WHg0GT0LCj10jCLnW-7c-44" target="WHg0GT0LCj10jCLnW-7c-66">
          <mxGeometry width="50" height="50" relative="1" as="geometry">
            <mxPoint x="730" y="120" as="sourcePoint" />
            <mxPoint x="800" y="60" as="targetPoint" />
            <Array as="points" />
          </mxGeometry>
        </mxCell>
        <mxCell id="WHg0GT0LCj10jCLnW-7c-70" value="" style="endArrow=none;html=1;rounded=0;entryX=0;entryY=1;entryDx=0;entryDy=0;exitX=1;exitY=0.5;exitDx=0;exitDy=0;" edge="1" parent="1" source="WHg0GT0LCj10jCLnW-7c-44" target="WHg0GT0LCj10jCLnW-7c-62">
          <mxGeometry width="50" height="50" relative="1" as="geometry">
            <mxPoint x="780" y="120" as="sourcePoint" />
            <mxPoint x="850" y="80" as="targetPoint" />
            <Array as="points" />
          </mxGeometry>
        </mxCell>
        <mxCell id="WHg0GT0LCj10jCLnW-7c-84" value="" style="edgeStyle=orthogonalEdgeStyle;rounded=0;orthogonalLoop=1;jettySize=auto;html=1;endArrow=none;endFill=0;" edge="1" parent="1" source="WHg0GT0LCj10jCLnW-7c-71" target="WHg0GT0LCj10jCLnW-7c-81">
          <mxGeometry relative="1" as="geometry" />
        </mxCell>
        <mxCell id="WHg0GT0LCj10jCLnW-7c-71" value="Packet" style="whiteSpace=wrap;html=1;align=center;" vertex="1" parent="1">
          <mxGeometry x="-20" y="110" width="100" height="40" as="geometry" />
        </mxCell>
        <mxCell id="WHg0GT0LCj10jCLnW-7c-72" value="" style="endArrow=none;html=1;rounded=0;entryX=0.25;entryY=0;entryDx=0;entryDy=0;" edge="1" parent="1" target="WHg0GT0LCj10jCLnW-7c-2">
          <mxGeometry width="50" height="50" relative="1" as="geometry">
            <mxPoint x="270" y="50" as="sourcePoint" />
            <mxPoint x="335" y="110" as="targetPoint" />
            <Array as="points" />
          </mxGeometry>
        </mxCell>
        <mxCell id="WHg0GT0LCj10jCLnW-7c-2" value="Supermarket" style="ellipse;whiteSpace=wrap;html=1;align=center;" vertex="1" parent="1">
          <mxGeometry x="200" y="40" width="100" height="40" as="geometry" />
        </mxCell>
        <mxCell id="WHg0GT0LCj10jCLnW-7c-73" value="Created from" style="shape=rhombus;perimeter=rhombusPerimeter;whiteSpace=wrap;html=1;align=center;" vertex="1" parent="1">
          <mxGeometry x="140" y="100" width="120" height="60" as="geometry" />
        </mxCell>
        <mxCell id="WHg0GT0LCj10jCLnW-7c-75" value="" style="endArrow=none;html=1;rounded=0;entryX=0;entryY=0.5;entryDx=0;entryDy=0;exitX=1;exitY=0.5;exitDx=0;exitDy=0;" edge="1" parent="1" source="WHg0GT0LCj10jCLnW-7c-73" target="GtdhLlFjY-CjgjCnvUHd-2">
          <mxGeometry relative="1" as="geometry">
            <mxPoint x="220" y="129.57999999999998" as="sourcePoint" />
            <mxPoint x="270" y="130" as="targetPoint" />
          </mxGeometry>
        </mxCell>
        <mxCell id="WHg0GT0LCj10jCLnW-7c-79" value="1" style="edgeLabel;html=1;align=center;verticalAlign=middle;resizable=0;points=[];" vertex="1" connectable="0" parent="WHg0GT0LCj10jCLnW-7c-75">
          <mxGeometry x="0.32" y="1" relative="1" as="geometry">
            <mxPoint as="offset" />
          </mxGeometry>
        </mxCell>
        <mxCell id="WHg0GT0LCj10jCLnW-7c-77" value="" style="endArrow=none;html=1;rounded=0;entryX=0;entryY=0.5;entryDx=0;entryDy=0;exitX=1;exitY=0.5;exitDx=0;exitDy=0;" edge="1" parent="1" source="WHg0GT0LCj10jCLnW-7c-71" target="WHg0GT0LCj10jCLnW-7c-73">
          <mxGeometry relative="1" as="geometry">
            <mxPoint x="70" y="129.58" as="sourcePoint" />
            <mxPoint x="120" y="129.58" as="targetPoint" />
          </mxGeometry>
        </mxCell>
        <mxCell id="WHg0GT0LCj10jCLnW-7c-78" value="1" style="edgeLabel;html=1;align=center;verticalAlign=middle;resizable=0;points=[];" vertex="1" connectable="0" parent="WHg0GT0LCj10jCLnW-7c-77">
          <mxGeometry x="-0.6524" y="1" relative="1" as="geometry">
            <mxPoint as="offset" />
          </mxGeometry>
        </mxCell>
        <mxCell id="WHg0GT0LCj10jCLnW-7c-83" value="" style="edgeStyle=orthogonalEdgeStyle;rounded=0;orthogonalLoop=1;jettySize=auto;html=1;endArrow=none;endFill=0;" edge="1" parent="1" source="WHg0GT0LCj10jCLnW-7c-80" target="WHg0GT0LCj10jCLnW-7c-71">
          <mxGeometry relative="1" as="geometry" />
        </mxCell>
        <mxCell id="WHg0GT0LCj10jCLnW-7c-80" value="&lt;u&gt;Tracking Id&lt;br&gt;&lt;/u&gt;" style="ellipse;whiteSpace=wrap;html=1;align=center;" vertex="1" parent="1">
          <mxGeometry x="-140" y="110" width="100" height="40" as="geometry" />
        </mxCell>
        <mxCell id="WHg0GT0LCj10jCLnW-7c-81" value="Route" style="ellipse;whiteSpace=wrap;html=1;align=center;" vertex="1" parent="1">
          <mxGeometry x="-20" y="50" width="100" height="40" as="geometry" />
        </mxCell>
        <mxCell id="WHg0GT0LCj10jCLnW-7c-87" value="Stock" style="whiteSpace=wrap;html=1;align=center;" vertex="1" parent="1">
          <mxGeometry x="1000" y="170" width="100" height="40" as="geometry" />
        </mxCell>
        <mxCell id="WHg0GT0LCj10jCLnW-7c-88" value="" style="rounded=0;orthogonalLoop=1;jettySize=auto;html=1;endArrow=none;endFill=0;entryX=0.75;entryY=0;entryDx=0;entryDy=0;exitX=0.5;exitY=1;exitDx=0;exitDy=0;strokeColor=default;" edge="1" parent="1" source="WHg0GT0LCj10jCLnW-7c-95" target="WHg0GT0LCj10jCLnW-7c-87">
          <mxGeometry relative="1" as="geometry">
            <mxPoint x="1435" y="270" as="sourcePoint" />
            <mxPoint x="1305" y="170" as="targetPoint" />
            <Array as="points" />
          </mxGeometry>
        </mxCell>
        <mxCell id="WHg0GT0LCj10jCLnW-7c-89" value="" style="rounded=0;orthogonalLoop=1;jettySize=auto;html=1;endArrow=none;endFill=0;exitX=0.5;exitY=0;exitDx=0;exitDy=0;strokeColor=default;entryX=1;entryY=0.5;entryDx=0;entryDy=0;" edge="1" parent="1" source="WHg0GT0LCj10jCLnW-7c-94" target="WHg0GT0LCj10jCLnW-7c-87">
          <mxGeometry relative="1" as="geometry">
            <mxPoint x="1305" y="260" as="sourcePoint" />
            <mxPoint x="1280" y="170" as="targetPoint" />
            <Array as="points" />
          </mxGeometry>
        </mxCell>
        <mxCell id="WHg0GT0LCj10jCLnW-7c-90" value="Sugar quantity" style="ellipse;whiteSpace=wrap;html=1;align=center;" vertex="1" parent="1">
          <mxGeometry x="1140" y="170" width="100" height="40" as="geometry" />
        </mxCell>
        <mxCell id="WHg0GT0LCj10jCLnW-7c-91" value="Flour quantity" style="ellipse;whiteSpace=wrap;html=1;align=center;" vertex="1" parent="1">
          <mxGeometry x="1140" y="80" width="100" height="40" as="geometry" />
        </mxCell>
        <mxCell id="WHg0GT0LCj10jCLnW-7c-92" value="Eggs quantity" style="ellipse;whiteSpace=wrap;html=1;align=center;" vertex="1" parent="1">
          <mxGeometry x="1080" y="280" width="100" height="40" as="geometry" />
        </mxCell>
        <mxCell id="WHg0GT0LCj10jCLnW-7c-93" value="Vanilla quantity" style="ellipse;whiteSpace=wrap;html=1;align=center;" vertex="1" parent="1">
          <mxGeometry x="1000" y="240" width="100" height="40" as="geometry" />
        </mxCell>
        <mxCell id="WHg0GT0LCj10jCLnW-7c-94" value="Baking powder quantity" style="ellipse;whiteSpace=wrap;html=1;align=center;" vertex="1" parent="1">
          <mxGeometry x="1140" y="230" width="100" height="40" as="geometry" />
        </mxCell>
        <mxCell id="WHg0GT0LCj10jCLnW-7c-95" value="Cocoa quantity" style="ellipse;whiteSpace=wrap;html=1;align=center;" vertex="1" parent="1">
          <mxGeometry x="1040" y="110" width="100" height="40" as="geometry" />
        </mxCell>
        <mxCell id="WHg0GT0LCj10jCLnW-7c-96" value="" style="rounded=0;orthogonalLoop=1;jettySize=auto;html=1;endArrow=none;endFill=0;entryX=1;entryY=1;entryDx=0;entryDy=0;exitX=0.5;exitY=0;exitDx=0;exitDy=0;strokeColor=default;" edge="1" parent="1" source="WHg0GT0LCj10jCLnW-7c-92" target="WHg0GT0LCj10jCLnW-7c-87">
          <mxGeometry relative="1" as="geometry">
            <mxPoint x="1145" y="190" as="sourcePoint" />
            <mxPoint x="1255" y="170" as="targetPoint" />
            <Array as="points" />
          </mxGeometry>
        </mxCell>
        <mxCell id="WHg0GT0LCj10jCLnW-7c-97" value="" style="rounded=0;orthogonalLoop=1;jettySize=auto;html=1;endArrow=none;endFill=0;exitX=0.5;exitY=0;exitDx=0;exitDy=0;strokeColor=default;entryX=1;entryY=0.25;entryDx=0;entryDy=0;" edge="1" parent="1" source="WHg0GT0LCj10jCLnW-7c-90" target="WHg0GT0LCj10jCLnW-7c-87">
          <mxGeometry relative="1" as="geometry">
            <mxPoint x="1190" y="210" as="sourcePoint" />
            <mxPoint x="1280" y="170" as="targetPoint" />
            <Array as="points" />
          </mxGeometry>
        </mxCell>
        <mxCell id="WHg0GT0LCj10jCLnW-7c-98" value="" style="rounded=0;orthogonalLoop=1;jettySize=auto;html=1;endArrow=none;endFill=0;exitX=0.5;exitY=1;exitDx=0;exitDy=0;strokeColor=default;entryX=1;entryY=0;entryDx=0;entryDy=0;" edge="1" parent="1" source="WHg0GT0LCj10jCLnW-7c-91" target="WHg0GT0LCj10jCLnW-7c-87">
          <mxGeometry relative="1" as="geometry">
            <mxPoint x="1300" y="210" as="sourcePoint" />
            <mxPoint x="1170" y="150" as="targetPoint" />
            <Array as="points" />
          </mxGeometry>
        </mxCell>
        <mxCell id="WHg0GT0LCj10jCLnW-7c-99" value="" style="rounded=0;orthogonalLoop=1;jettySize=auto;html=1;endArrow=none;endFill=0;entryX=0.5;entryY=1;entryDx=0;entryDy=0;exitX=0.5;exitY=0;exitDx=0;exitDy=0;strokeColor=default;" edge="1" parent="1" source="WHg0GT0LCj10jCLnW-7c-93" target="WHg0GT0LCj10jCLnW-7c-87">
          <mxGeometry relative="1" as="geometry">
            <mxPoint x="1430" y="220" as="sourcePoint" />
            <mxPoint x="1255" y="170" as="targetPoint" />
            <Array as="points" />
          </mxGeometry>
        </mxCell>
        <mxCell id="WHg0GT0LCj10jCLnW-7c-101" value="Ensures availability" style="shape=rhombus;perimeter=rhombusPerimeter;whiteSpace=wrap;html=1;align=center;" vertex="1" parent="1">
          <mxGeometry x="820" y="160" width="130" height="60" as="geometry" />
        </mxCell>
        <mxCell id="WHg0GT0LCj10jCLnW-7c-102" value="" style="endArrow=none;html=1;rounded=0;entryX=0;entryY=0.5;entryDx=0;entryDy=0;exitX=1;exitY=0.5;exitDx=0;exitDy=0;" edge="1" parent="1" source="WHg0GT0LCj10jCLnW-7c-101" target="WHg0GT0LCj10jCLnW-7c-87">
          <mxGeometry width="50" height="50" relative="1" as="geometry">
            <mxPoint x="920" y="230" as="sourcePoint" />
            <mxPoint x="990" y="230" as="targetPoint" />
            <Array as="points" />
          </mxGeometry>
        </mxCell>
        <mxCell id="WHg0GT0LCj10jCLnW-7c-103" value="1" style="edgeLabel;html=1;align=center;verticalAlign=middle;resizable=0;points=[];" connectable="0" vertex="1" parent="WHg0GT0LCj10jCLnW-7c-102">
          <mxGeometry x="0.5324" y="3" relative="1" as="geometry">
            <mxPoint x="6" y="-7" as="offset" />
          </mxGeometry>
        </mxCell>
        <mxCell id="WHg0GT0LCj10jCLnW-7c-104" value="" style="endArrow=none;html=1;rounded=0;entryX=1;entryY=1;entryDx=0;entryDy=0;exitX=0;exitY=0;exitDx=0;exitDy=0;" edge="1" parent="1" source="WHg0GT0LCj10jCLnW-7c-101" target="WHg0GT0LCj10jCLnW-7c-44">
          <mxGeometry width="50" height="50" relative="1" as="geometry">
            <mxPoint x="960" y="200" as="sourcePoint" />
            <mxPoint x="1010" y="200" as="targetPoint" />
            <Array as="points" />
          </mxGeometry>
        </mxCell>
        <mxCell id="WHg0GT0LCj10jCLnW-7c-105" value="N" style="edgeLabel;html=1;align=center;verticalAlign=middle;resizable=0;points=[];" connectable="0" vertex="1" parent="WHg0GT0LCj10jCLnW-7c-104">
          <mxGeometry x="0.5324" y="3" relative="1" as="geometry">
            <mxPoint x="10" y="-12" as="offset" />
          </mxGeometry>
        </mxCell>
        <mxCell id="WHg0GT0LCj10jCLnW-7c-106" value="&lt;u&gt;Stock Id&lt;br&gt;&lt;/u&gt;" style="ellipse;whiteSpace=wrap;html=1;align=center;" vertex="1" parent="1">
          <mxGeometry x="1020" y="60" width="100" height="40" as="geometry" />
        </mxCell>
        <mxCell id="WHg0GT0LCj10jCLnW-7c-109" value="Baked Good Name" style="ellipse;whiteSpace=wrap;html=1;align=center;" vertex="1" parent="1">
          <mxGeometry x="490" y="500" width="120" height="40" as="geometry" />
        </mxCell>
        <mxCell id="WHg0GT0LCj10jCLnW-7c-110" value="" style="rounded=0;orthogonalLoop=1;jettySize=auto;html=1;endArrow=none;endFill=0;entryX=0;entryY=0.5;entryDx=0;entryDy=0;exitX=1;exitY=0.5;exitDx=0;exitDy=0;strokeColor=default;" edge="1" parent="1" source="WHg0GT0LCj10jCLnW-7c-109" target="WHg0GT0LCj10jCLnW-7c-29">
          <mxGeometry relative="1" as="geometry">
            <mxPoint x="830" y="530" as="sourcePoint" />
            <mxPoint x="780" y="530" as="targetPoint" />
            <Array as="points" />
          </mxGeometry>
        </mxCell>
        <mxCell id="WHg0GT0LCj10jCLnW-7c-111" value="&lt;u&gt;Order Item Id&lt;br&gt;&lt;/u&gt;" style="ellipse;whiteSpace=wrap;html=1;align=center;" vertex="1" parent="1">
          <mxGeometry x="190" y="350" width="100" height="40" as="geometry" />
        </mxCell>
        <mxCell id="WHg0GT0LCj10jCLnW-7c-112" value="" style="rounded=0;orthogonalLoop=1;jettySize=auto;html=1;endArrow=none;endFill=0;entryX=0;entryY=1;entryDx=0;entryDy=0;exitX=1;exitY=0;exitDx=0;exitDy=0;strokeColor=default;" edge="1" parent="1" source="WHg0GT0LCj10jCLnW-7c-111" target="GtdhLlFjY-CjgjCnvUHd-6">
          <mxGeometry relative="1" as="geometry">
            <mxPoint x="370" y="380" as="sourcePoint" />
            <mxPoint x="370" y="350" as="targetPoint" />
          </mxGeometry>
        </mxCell>
      </root>
    </mxGraphModel>
  </diagram>
</mxfile>
